<svg width="186" height="46" viewBox="0 0 186 46" fill="none" xmlns="http://www.w3.org/2000/svg">
<path d="M84.615 7.653V10.909H80.508V31H76.253V10.909H72.183V7.653H84.615ZM90.8201 21.898V31H86.5651V7.653H95.1491C97.8377 7.653 99.1821 8.874 99.1821 11.316V18.235C99.1821 20.2577 98.2817 21.4417 96.4811 21.787L100.366 31H95.7781L92.2261 21.898H90.8201ZM90.8201 10.909V18.753H93.8911C94.2857 18.753 94.5571 18.6913 94.7051 18.568C94.8531 18.42 94.9271 18.1487 94.9271 17.754V11.908C94.9271 11.5133 94.8531 11.2543 94.7051 11.131C94.5571 10.983 94.2857 10.909 93.8911 10.909H90.8201ZM110.752 7.653H115.007V27.337C115.007 29.779 113.662 31 110.974 31H106.46C103.771 31 102.427 29.779 102.427 27.337V7.653H106.682V26.745C106.682 27.1397 106.756 27.411 106.904 27.559C107.052 27.6823 107.323 27.744 107.718 27.744H109.679C110.098 27.744 110.382 27.6823 110.53 27.559C110.678 27.411 110.752 27.1397 110.752 26.745V7.653ZM130.716 15.386H126.424V11.76C126.424 11.3653 126.35 11.1063 126.202 10.983C126.054 10.835 125.783 10.761 125.388 10.761H123.649C123.255 10.761 122.983 10.835 122.835 10.983C122.687 11.1063 122.613 11.3653 122.613 11.76V26.93C122.613 27.3247 122.687 27.596 122.835 27.744C122.983 27.8673 123.255 27.929 123.649 27.929H125.388C125.783 27.929 126.054 27.8673 126.202 27.744C126.35 27.596 126.424 27.3247 126.424 26.93V23.378H130.716V27.374C130.716 29.816 129.372 31.037 126.683 31.037H122.354C119.666 31.037 118.321 29.816 118.321 27.374V11.316C118.321 8.874 119.666 7.653 122.354 7.653H126.683C129.372 7.653 130.716 8.874 130.716 11.316V15.386ZM147.408 7.653L142.598 19.271L147.371 31H142.783L138.158 19.271L142.82 7.653H147.408ZM133.718 31V7.653H137.973V31H133.718ZM153.764 27.744H160.868V31H149.472V7.653H160.572V10.909H153.764V17.384H159.499V20.677H153.764V27.744ZM167.566 21.898V31H163.311V7.653H171.895C174.584 7.653 175.928 8.874 175.928 11.316V18.235C175.928 20.2577 175.028 21.4417 173.227 21.787L177.112 31H172.524L168.972 21.898H167.566ZM167.566 10.909V18.753H170.637C171.032 18.753 171.303 18.6913 171.451 18.568C171.599 18.42 171.673 18.1487 171.673 17.754V11.908C171.673 11.5133 171.599 11.2543 171.451 11.131C171.303 10.983 171.032 10.909 170.637 10.909H167.566Z" fill="white"/>
<path d="M75.573 42V37.205H74.117V36.785H77.477V37.205H76.028V42H75.573ZM78.2449 42V36.785H79.9949C80.3262 36.785 80.6179 36.8503 80.8699 36.981C81.1219 37.1117 81.3179 37.296 81.4579 37.534C81.6026 37.772 81.6749 38.0473 81.6749 38.36C81.6749 38.7333 81.5722 39.053 81.3669 39.319C81.1662 39.5803 80.8956 39.76 80.5549 39.858L81.7869 42H81.2479L79.9529 39.718L80.3309 39.935H78.6999V42H78.2449ZM78.6999 39.515H80.0089C80.2469 39.515 80.4569 39.4683 80.6389 39.375C80.8209 39.277 80.9632 39.1417 81.0659 38.969C81.1686 38.7917 81.2199 38.5863 81.2199 38.353C81.2199 38.1197 81.1686 37.919 81.0659 37.751C80.9632 37.5783 80.8209 37.4453 80.6389 37.352C80.4569 37.254 80.2469 37.205 80.0089 37.205H78.6999V39.515ZM82.1698 42L84.0878 36.785H84.5568L86.4748 42H85.9848L85.5088 40.67H83.1358L82.6528 42H82.1698ZM83.2828 40.25H85.3548L84.2348 37.135H84.4028L83.2828 40.25ZM87.2478 42V36.785H87.6328L90.7898 41.314H90.6428V36.785H91.0978V42H90.7128L87.5418 37.443H87.7028V42H87.2478ZM94.103 42.084C93.7716 42.084 93.473 42.021 93.207 41.895C92.9456 41.769 92.7263 41.6033 92.549 41.398C92.3763 41.1927 92.2526 40.971 92.178 40.733L92.584 40.586C92.7146 40.9407 92.9083 41.2113 93.165 41.398C93.4263 41.5847 93.7366 41.678 94.096 41.678C94.334 41.678 94.5416 41.6383 94.719 41.559C94.901 41.4797 95.0433 41.3677 95.146 41.223C95.2486 41.0783 95.3 40.908 95.3 40.712C95.3 40.4413 95.223 40.2313 95.069 40.082C94.9196 39.9327 94.7236 39.8253 94.481 39.76L93.529 39.48C93.1416 39.368 92.8546 39.1883 92.668 38.941C92.486 38.689 92.395 38.4043 92.395 38.087C92.395 37.8117 92.4603 37.5713 92.591 37.366C92.7263 37.156 92.9083 36.9927 93.137 36.876C93.3656 36.7593 93.6246 36.701 93.914 36.701C94.2173 36.701 94.488 36.7593 94.726 36.876C94.9686 36.988 95.1716 37.1373 95.335 37.324C95.503 37.506 95.622 37.709 95.692 37.933L95.293 38.08C95.1763 37.758 94.9966 37.5153 94.754 37.352C94.5113 37.184 94.2336 37.1 93.921 37.1C93.7156 37.1 93.5313 37.1397 93.368 37.219C93.2046 37.2983 93.0763 37.4103 92.983 37.555C92.8896 37.6997 92.843 37.87 92.843 38.066C92.843 38.304 92.9106 38.507 93.046 38.675C93.1813 38.843 93.4076 38.976 93.725 39.074L94.579 39.326C94.9523 39.438 95.2393 39.6107 95.44 39.844C95.6453 40.0727 95.748 40.355 95.748 40.691C95.748 40.9663 95.678 41.209 95.538 41.419C95.398 41.6243 95.202 41.7877 94.95 41.909C94.7026 42.0257 94.4203 42.084 94.103 42.084ZM96.907 42V36.785H98.657C98.9884 36.785 99.28 36.8503 99.532 36.981C99.784 37.1117 99.98 37.296 100.12 37.534C100.265 37.772 100.337 38.0473 100.337 38.36C100.337 38.6727 100.265 38.948 100.12 39.186C99.98 39.4193 99.784 39.6037 99.532 39.739C99.2847 39.8697 98.993 39.935 98.657 39.935H97.362V42H96.907ZM97.362 39.515H98.671C98.909 39.515 99.119 39.4683 99.301 39.375C99.483 39.277 99.6254 39.1417 99.728 38.969C99.8307 38.7917 99.882 38.5863 99.882 38.353C99.882 38.1197 99.8307 37.919 99.728 37.751C99.6254 37.5783 99.483 37.4453 99.301 37.352C99.119 37.254 98.909 37.205 98.671 37.205H97.362V39.515ZM103.841 42.084C103.482 42.084 103.146 42.0187 102.833 41.888C102.52 41.7527 102.245 41.566 102.007 41.328C101.774 41.0853 101.589 40.8007 101.454 40.474C101.323 40.1427 101.258 39.781 101.258 39.389C101.258 38.9923 101.323 38.6307 101.454 38.304C101.589 37.9773 101.776 37.695 102.014 37.457C102.252 37.2143 102.525 37.0277 102.833 36.897C103.146 36.7663 103.482 36.701 103.841 36.701C104.196 36.701 104.529 36.7663 104.842 36.897C105.155 37.0277 105.428 37.2143 105.661 37.457C105.899 37.695 106.086 37.9797 106.221 38.311C106.356 38.6377 106.424 38.997 106.424 39.389C106.424 39.781 106.356 40.1427 106.221 40.474C106.086 40.8007 105.899 41.0853 105.661 41.328C105.428 41.566 105.155 41.7527 104.842 41.888C104.529 42.0187 104.196 42.084 103.841 42.084ZM103.841 41.65C104.154 41.65 104.441 41.5917 104.702 41.475C104.963 41.3583 105.187 41.195 105.374 40.985C105.565 40.775 105.712 40.5347 105.815 40.264C105.918 39.9887 105.969 39.697 105.969 39.389C105.969 39.0857 105.918 38.7987 105.815 38.528C105.712 38.2527 105.565 38.01 105.374 37.8C105.187 37.59 104.963 37.4267 104.702 37.31C104.445 37.1887 104.158 37.128 103.841 37.128C103.524 37.128 103.234 37.1887 102.973 37.31C102.716 37.4267 102.492 37.59 102.301 37.8C102.114 38.01 101.97 38.2527 101.867 38.528C101.764 38.7987 101.713 39.0857 101.713 39.389C101.713 39.697 101.764 39.9887 101.867 40.264C101.97 40.5347 102.114 40.775 102.301 40.985C102.492 41.195 102.719 41.3583 102.98 41.475C103.241 41.5917 103.528 41.65 103.841 41.65ZM107.578 42V36.785H109.328C109.659 36.785 109.951 36.8503 110.203 36.981C110.455 37.1117 110.651 37.296 110.791 37.534C110.936 37.772 111.008 38.0473 111.008 38.36C111.008 38.7333 110.905 39.053 110.7 39.319C110.499 39.5803 110.229 39.76 109.888 39.858L111.12 42H110.581L109.286 39.718L109.664 39.935H108.033V42H107.578ZM108.033 39.515H109.342C109.58 39.515 109.79 39.4683 109.972 39.375C110.154 39.277 110.296 39.1417 110.399 38.969C110.502 38.7917 110.553 38.5863 110.553 38.353C110.553 38.1197 110.502 37.919 110.399 37.751C110.296 37.5783 110.154 37.4453 109.972 37.352C109.79 37.254 109.58 37.205 109.342 37.205H108.033V39.515ZM112.822 42V37.205H111.366V36.785H114.726V37.205H113.277V42H112.822ZM114.606 42L116.524 36.785H116.993L118.911 42H118.421L117.945 40.67H115.572L115.089 42H114.606ZM115.719 40.25H117.791L116.671 37.135H116.839L115.719 40.25ZM120.253 42V37.205H118.797V36.785H122.157V37.205H120.708V42H120.253ZM122.925 42V36.785H123.38V42H122.925ZM127.117 42.084C126.758 42.084 126.422 42.0187 126.109 41.888C125.797 41.7527 125.521 41.566 125.283 41.328C125.05 41.0853 124.866 40.8007 124.73 40.474C124.6 40.1427 124.534 39.781 124.534 39.389C124.534 38.9923 124.6 38.6307 124.73 38.304C124.866 37.9773 125.052 37.695 125.29 37.457C125.528 37.2143 125.801 37.0277 126.109 36.897C126.422 36.7663 126.758 36.701 127.117 36.701C127.472 36.701 127.806 36.7663 128.118 36.897C128.431 37.0277 128.704 37.2143 128.937 37.457C129.175 37.695 129.362 37.9797 129.497 38.311C129.633 38.6377 129.7 38.997 129.7 39.389C129.7 39.781 129.633 40.1427 129.497 40.474C129.362 40.8007 129.175 41.0853 128.937 41.328C128.704 41.566 128.431 41.7527 128.118 41.888C127.806 42.0187 127.472 42.084 127.117 42.084ZM127.117 41.65C127.43 41.65 127.717 41.5917 127.978 41.475C128.24 41.3583 128.464 41.195 128.65 40.985C128.842 40.775 128.989 40.5347 129.091 40.264C129.194 39.9887 129.245 39.697 129.245 39.389C129.245 39.0857 129.194 38.7987 129.091 38.528C128.989 38.2527 128.842 38.01 128.65 37.8C128.464 37.59 128.24 37.4267 127.978 37.31C127.722 37.1887 127.435 37.128 127.117 37.128C126.8 37.128 126.511 37.1887 126.249 37.31C125.993 37.4267 125.769 37.59 125.577 37.8C125.391 38.01 125.246 38.2527 125.143 38.528C125.041 38.7987 124.989 39.0857 124.989 39.389C124.989 39.697 125.041 39.9887 125.143 40.264C125.246 40.5347 125.391 40.775 125.577 40.985C125.769 41.195 125.995 41.3583 126.256 41.475C126.518 41.5917 126.805 41.65 127.117 41.65ZM130.854 42V36.785H131.239L134.396 41.314H134.249V36.785H134.704V42H134.319L131.148 37.443H131.309V42H130.854ZM138.312 42.084C138.046 42.084 137.805 42.0327 137.591 41.93C137.381 41.8227 137.213 41.6757 137.087 41.489C136.965 41.2977 136.905 41.076 136.905 40.824C136.905 40.614 136.942 40.4297 137.017 40.271C137.096 40.1077 137.194 39.9607 137.311 39.83C137.427 39.6993 137.553 39.5827 137.689 39.48C137.824 39.3773 137.952 39.284 138.074 39.2L138.354 39.011C138.512 38.9037 138.657 38.794 138.788 38.682C138.923 38.57 139.033 38.4487 139.117 38.318C139.201 38.1827 139.243 38.0333 139.243 37.87C139.243 37.6553 139.17 37.478 139.026 37.338C138.886 37.198 138.713 37.128 138.508 37.128C138.293 37.128 138.116 37.2003 137.976 37.345C137.84 37.485 137.773 37.6623 137.773 37.877C137.773 38.0263 137.805 38.1687 137.871 38.304C137.941 38.4393 138.027 38.5653 138.13 38.682C138.232 38.7987 138.335 38.9107 138.438 39.018L141.343 42H140.727L138.088 39.326C137.98 39.214 137.866 39.088 137.745 38.948C137.628 38.8033 137.528 38.6447 137.444 38.472C137.36 38.2947 137.318 38.101 137.318 37.891C137.318 37.6577 137.369 37.4523 137.472 37.275C137.579 37.0977 137.721 36.9577 137.899 36.855C138.081 36.7523 138.284 36.701 138.508 36.701C138.722 36.701 138.918 36.7523 139.096 36.855C139.278 36.953 139.422 37.0907 139.53 37.268C139.637 37.4407 139.691 37.6413 139.691 37.87C139.691 38.108 139.635 38.318 139.523 38.5C139.415 38.6773 139.28 38.8337 139.117 38.969C138.958 39.1043 138.802 39.2257 138.648 39.333L138.375 39.515C138.207 39.6363 138.046 39.76 137.892 39.886C137.742 40.0073 137.619 40.1427 137.521 40.292C137.427 40.4413 137.381 40.6163 137.381 40.817C137.381 41.0783 137.467 41.2837 137.64 41.433C137.817 41.5823 138.043 41.657 138.319 41.657C138.51 41.657 138.676 41.6243 138.816 41.559C138.96 41.4937 139.086 41.4097 139.194 41.307C139.306 41.1997 139.406 41.0853 139.495 40.964C139.583 40.838 139.665 40.7167 139.74 40.6L140.545 39.403H141.07L140.139 40.817C140.064 40.9337 139.973 41.0643 139.866 41.209C139.758 41.3537 139.632 41.4937 139.488 41.629C139.348 41.7597 139.18 41.8693 138.984 41.958C138.792 42.042 138.568 42.084 138.312 42.084ZM143.419 42V36.785H143.874V41.58H146.219V42H143.419ZM149.437 42.084C149.077 42.084 148.741 42.0187 148.429 41.888C148.116 41.7527 147.841 41.566 147.603 41.328C147.369 41.0853 147.185 40.8007 147.05 40.474C146.919 40.1427 146.854 39.781 146.854 39.389C146.854 38.9923 146.919 38.6307 147.05 38.304C147.185 37.9773 147.372 37.695 147.61 37.457C147.848 37.2143 148.121 37.0277 148.429 36.897C148.741 36.7663 149.077 36.701 149.437 36.701C149.791 36.701 150.125 36.7663 150.438 36.897C150.75 37.0277 151.023 37.2143 151.257 37.457C151.495 37.695 151.681 37.9797 151.817 38.311C151.952 38.6377 152.02 38.997 152.02 39.389C152.02 39.781 151.952 40.1427 151.817 40.474C151.681 40.8007 151.495 41.0853 151.257 41.328C151.023 41.566 150.75 41.7527 150.438 41.888C150.125 42.0187 149.791 42.084 149.437 42.084ZM149.437 41.65C149.749 41.65 150.036 41.5917 150.298 41.475C150.559 41.3583 150.783 41.195 150.97 40.985C151.161 40.775 151.308 40.5347 151.411 40.264C151.513 39.9887 151.565 39.697 151.565 39.389C151.565 39.0857 151.513 38.7987 151.411 38.528C151.308 38.2527 151.161 38.01 150.97 37.8C150.783 37.59 150.559 37.4267 150.298 37.31C150.041 37.1887 149.754 37.128 149.437 37.128C149.119 37.128 148.83 37.1887 148.569 37.31C148.312 37.4267 148.088 37.59 147.897 37.8C147.71 38.01 147.565 38.2527 147.463 38.528C147.36 38.7987 147.309 39.0857 147.309 39.389C147.309 39.697 147.36 39.9887 147.463 40.264C147.565 40.5347 147.71 40.775 147.897 40.985C148.088 41.195 148.314 41.3583 148.576 41.475C148.837 41.5917 149.124 41.65 149.437 41.65ZM155.533 42.084C155.164 42.084 154.826 42.0187 154.518 41.888C154.214 41.7527 153.951 41.566 153.727 41.328C153.503 41.0853 153.328 40.8007 153.202 40.474C153.08 40.1473 153.02 39.788 153.02 39.396C153.02 39.004 153.08 38.6447 153.202 38.318C153.328 37.9913 153.503 37.7067 153.727 37.464C153.955 37.2213 154.221 37.0347 154.525 36.904C154.833 36.7687 155.169 36.701 155.533 36.701C155.892 36.701 156.212 36.764 156.492 36.89C156.776 37.016 157.014 37.177 157.206 37.373C157.402 37.569 157.542 37.772 157.626 37.982L157.206 38.178C157.066 37.856 156.851 37.6017 156.562 37.415C156.277 37.2237 155.934 37.128 155.533 37.128C155.136 37.128 154.781 37.2237 154.469 37.415C154.156 37.6063 153.911 37.8723 153.734 38.213C153.561 38.549 153.475 38.9433 153.475 39.396C153.475 39.844 153.561 40.2383 153.734 40.579C153.911 40.9197 154.154 41.1833 154.462 41.37C154.774 41.5567 155.131 41.65 155.533 41.65C155.892 41.65 156.214 41.5707 156.499 41.412C156.788 41.2487 157.014 41.0293 157.178 40.754C157.346 40.474 157.43 40.1543 157.43 39.795V39.55L157.633 39.767H155.533V39.361H157.885V39.753C157.885 40.0797 157.824 40.3853 157.703 40.67C157.586 40.95 157.423 41.1973 157.213 41.412C157.003 41.622 156.753 41.7877 156.464 41.909C156.179 42.0257 155.869 42.084 155.533 42.084ZM158.971 42V36.785H159.426V42H158.971ZM162.428 42.084C162.097 42.084 161.798 42.021 161.532 41.895C161.271 41.769 161.052 41.6033 160.874 41.398C160.702 41.1927 160.578 40.971 160.503 40.733L160.909 40.586C161.04 40.9407 161.234 41.2113 161.49 41.398C161.752 41.5847 162.062 41.678 162.421 41.678C162.659 41.678 162.867 41.6383 163.044 41.559C163.226 41.4797 163.369 41.3677 163.471 41.223C163.574 41.0783 163.625 40.908 163.625 40.712C163.625 40.4413 163.548 40.2313 163.394 40.082C163.245 39.9327 163.049 39.8253 162.806 39.76L161.854 39.48C161.467 39.368 161.18 39.1883 160.993 38.941C160.811 38.689 160.72 38.4043 160.72 38.087C160.72 37.8117 160.786 37.5713 160.916 37.366C161.052 37.156 161.234 36.9927 161.462 36.876C161.691 36.7593 161.95 36.701 162.239 36.701C162.543 36.701 162.813 36.7593 163.051 36.876C163.294 36.988 163.497 37.1373 163.66 37.324C163.828 37.506 163.947 37.709 164.017 37.933L163.618 38.08C163.502 37.758 163.322 37.5153 163.079 37.352C162.837 37.184 162.559 37.1 162.246 37.1C162.041 37.1 161.857 37.1397 161.693 37.219C161.53 37.2983 161.402 37.4103 161.308 37.555C161.215 37.6997 161.168 37.87 161.168 38.066C161.168 38.304 161.236 38.507 161.371 38.675C161.507 38.843 161.733 38.976 162.05 39.074L162.904 39.326C163.278 39.438 163.565 39.6107 163.765 39.844C163.971 40.0727 164.073 40.355 164.073 40.691C164.073 40.9663 164.003 41.209 163.863 41.419C163.723 41.6243 163.527 41.7877 163.275 41.909C163.028 42.0257 162.746 42.084 162.428 42.084ZM166.149 42V37.205H164.693V36.785H168.053V37.205H166.604V42H166.149ZM168.821 42V36.785H169.276V42H168.821ZM172.93 42.084C172.57 42.084 172.239 42.0187 171.936 41.888C171.632 41.7527 171.366 41.5637 171.138 41.321C170.914 41.0783 170.739 40.7937 170.613 40.467C170.491 40.1403 170.431 39.781 170.431 39.389C170.431 39.0017 170.491 38.6447 170.613 38.318C170.739 37.9867 170.914 37.702 171.138 37.464C171.366 37.2213 171.632 37.0347 171.936 36.904C172.239 36.7687 172.57 36.701 172.93 36.701C173.28 36.701 173.595 36.764 173.875 36.89C174.155 37.016 174.39 37.177 174.582 37.373C174.773 37.569 174.911 37.772 174.995 37.982L174.568 38.171C174.428 37.8583 174.215 37.6063 173.931 37.415C173.651 37.2237 173.317 37.128 172.93 37.128C172.533 37.128 172.178 37.2237 171.866 37.415C171.558 37.6063 171.317 37.8723 171.145 38.213C170.972 38.549 170.886 38.941 170.886 39.389C170.886 39.837 170.972 40.2313 171.145 40.572C171.317 40.9127 171.558 41.1787 171.866 41.37C172.178 41.5567 172.533 41.65 172.93 41.65C173.317 41.65 173.651 41.5567 173.931 41.37C174.215 41.1787 174.428 40.9267 174.568 40.614L174.995 40.803C174.911 41.0083 174.773 41.209 174.582 41.405C174.39 41.601 174.155 41.7643 173.875 41.895C173.595 42.021 173.28 42.084 172.93 42.084ZM177.775 42.084C177.444 42.084 177.145 42.021 176.879 41.895C176.618 41.769 176.398 41.6033 176.221 41.398C176.048 41.1927 175.925 40.971 175.85 40.733L176.256 40.586C176.387 40.9407 176.58 41.2113 176.837 41.398C177.098 41.5847 177.409 41.678 177.768 41.678C178.006 41.678 178.214 41.6383 178.391 41.559C178.573 41.4797 178.715 41.3677 178.818 41.223C178.921 41.0783 178.972 40.908 178.972 40.712C178.972 40.4413 178.895 40.2313 178.741 40.082C178.592 39.9327 178.396 39.8253 178.153 39.76L177.201 39.48C176.814 39.368 176.527 39.1883 176.34 38.941C176.158 38.689 176.067 38.4043 176.067 38.087C176.067 37.8117 176.132 37.5713 176.263 37.366C176.398 37.156 176.58 36.9927 176.809 36.876C177.038 36.7593 177.297 36.701 177.586 36.701C177.889 36.701 178.16 36.7593 178.398 36.876C178.641 36.988 178.844 37.1373 179.007 37.324C179.175 37.506 179.294 37.709 179.364 37.933L178.965 38.08C178.848 37.758 178.669 37.5153 178.426 37.352C178.183 37.184 177.906 37.1 177.593 37.1C177.388 37.1 177.203 37.1397 177.04 37.219C176.877 37.2983 176.748 37.4103 176.655 37.555C176.562 37.6997 176.515 37.87 176.515 38.066C176.515 38.304 176.583 38.507 176.718 38.675C176.853 38.843 177.08 38.976 177.397 39.074L178.251 39.326C178.624 39.438 178.911 39.6107 179.112 39.844C179.317 40.0727 179.42 40.355 179.42 40.691C179.42 40.9663 179.35 41.209 179.21 41.419C179.07 41.6243 178.874 41.7877 178.622 41.909C178.375 42.0257 178.092 42.084 177.775 42.084Z" fill="white"/>
<path d="M12.3168 28.0127C12.4115 28.0127 12.4944 28.0279 12.5654 28.0584H17.2873C17.3583 28.0279 17.4411 28.0127 17.5358 28.0127C17.7015 27.9823 17.8671 27.9214 18.0328 27.8301C18.8139 27.3736 19.2399 26.2323 19.0979 25.1823C18.9559 24.3149 18.4234 23.6301 17.7843 23.4019C17.6896 23.3714 17.6068 23.341 17.5358 23.3105C17.4411 23.3105 17.3583 23.3105 17.2873 23.3105H12.5654C12.3523 23.3105 12.2813 23.3105 12.0683 23.4019C11.9026 23.4627 11.7488 23.5388 11.6068 23.6301C10.9677 24.1323 10.6127 25.1823 10.7547 26.141C10.9322 27.0997 11.5713 27.8758 12.3168 28.0127Z" fill="white"/>
<path d="M1.5953 9.06716C1.66631 9.06716 1.74915 9.06716 1.84382 9.06716H6.53021C6.62489 9.06716 6.70773 9.06716 6.77873 9.06716C6.94441 9.03673 7.11009 8.97586 7.27577 8.88455C8.09234 8.42803 8.51838 7.28673 8.34086 6.23673C8.19885 5.36934 7.66631 4.6389 7.02725 4.41064C6.95625 4.38021 6.87341 4.36499 6.77873 4.36499C6.70773 4.36499 6.62489 4.34977 6.53021 4.31934H1.84382C1.5953 4.36499 1.5598 4.31934 1.34678 4.41064C1.1811 4.47151 1.02725 4.56281 0.885241 4.68455C0.210685 5.18673 -0.108841 6.23673 0.0331705 7.19542C0.175182 8.15412 0.849738 8.93021 1.5953 9.06716Z" fill="white"/>
<path d="M5.71335 23.402C5.64234 23.3715 5.5595 23.3411 5.46483 23.3107C5.39382 23.3107 5.31098 23.3107 5.21631 23.3107H2.66009C2.44707 23.3107 2.37607 23.3107 2.16305 23.402C1.99737 23.4628 1.84352 23.5389 1.70151 23.6302C1.06246 24.1324 0.70743 25.1824 0.849442 26.1411C1.02696 27.0998 1.66601 27.8759 2.41157 28.0128C2.50625 28.0128 2.58909 28.0281 2.66009 28.0585H5.21631C5.31098 28.0281 5.39382 28.0128 5.46483 28.0128C5.63051 27.9824 5.79619 27.9215 5.96187 27.8302C6.74293 27.3737 7.20447 26.2324 7.02696 25.1824C6.88494 24.315 6.3524 23.6302 5.71335 23.402Z" fill="white"/>
<path d="M14.909 40.978C14.838 40.9476 14.7551 40.9172 14.6605 40.8867C14.5894 40.8867 14.5066 40.8867 14.4119 40.8867H11.8912C11.6427 40.8867 11.6072 40.8867 11.3587 40.978C11.2167 41.0389 11.0747 41.115 10.9326 41.2063C10.2581 41.7541 9.90306 42.8041 10.0806 43.7172C10.2226 44.7215 10.8616 45.4519 11.6072 45.5889C11.7019 45.6193 11.7966 45.6345 11.8912 45.6345H14.4119C14.5066 45.6345 14.5894 45.6193 14.6605 45.5889C14.8261 45.5585 14.9918 45.4976 15.1575 45.4063C15.9386 44.9954 16.4001 43.8085 16.2226 42.7585C16.0806 41.8911 15.548 41.2063 14.909 40.978Z" fill="white"/>
<path fill-rule="evenodd" clip-rule="evenodd" d="M59.6426 15.5954V34.3585C59.6426 34.6324 59.6426 34.678 59.5716 34.9063C59.5006 35.2715 59.3231 35.5911 59.1101 35.8193C59.0391 35.8802 58.9799 35.9259 58.9326 35.9563L46.5065 45.2237C46.4119 45.2846 46.3054 45.3454 46.187 45.4063C46.187 45.4367 46.187 45.452 46.187 45.452C46.1397 45.452 46.1042 45.4672 46.0805 45.4976C45.9858 45.5585 45.8793 45.5889 45.761 45.5889C45.7373 45.6193 45.7018 45.6346 45.6545 45.6346C45.6308 45.6346 45.5953 45.6346 45.548 45.6346C45.5243 45.6346 45.5006 45.6346 45.477 45.6346C45.477 45.6346 45.4651 45.6346 45.4415 45.6346H20.5894C20.5184 45.6346 20.4355 45.6193 20.3409 45.5889C19.5953 45.452 18.9562 44.7215 18.7787 43.7172C18.6367 42.8041 18.9918 41.7541 19.6308 41.2063C19.7728 41.115 19.9267 41.0389 20.0923 40.978C20.3054 40.8867 20.3764 40.8867 20.5894 40.8867H25.2403C25.3349 40.8867 25.4178 40.8715 25.4888 40.8411C25.6545 40.8106 25.8202 40.765 25.9858 40.7041C26.7669 40.2476 27.2284 39.0606 27.0509 38.0106C26.9089 37.1889 26.3764 36.4585 25.7373 36.2302C25.69 36.1998 25.6308 36.1846 25.5598 36.1846C25.4533 36.1846 25.3468 36.1389 25.2403 36.1389H9.51246C9.41779 36.1389 9.33495 36.1389 9.26394 36.1389C8.51838 36.0019 7.84382 35.2259 7.70181 34.2672C7.5598 33.3085 7.87932 32.2585 8.55388 31.7563C8.69589 31.6346 8.84974 31.5433 9.01542 31.4824C9.22844 31.3911 9.29944 31.4367 9.51246 31.3911H32.8379C33.548 31.3911 34.1515 32.0302 34.2935 32.8976C34.329 33.1715 34.471 33.3998 34.6486 33.5367L40.0095 37.5541C41.8202 38.878 44.1278 37.1889 44.1278 34.4954V30.2498C44.1278 27.6476 43.0273 25.228 41.2876 23.9498L34.7551 19.1106C34.542 18.928 34.329 19.1106 34.329 19.3846V26.1411C34.329 27.1911 33.6545 28.0585 32.8379 28.0585H23.5006C23.4296 28.028 23.3468 28.0128 23.2521 28.0128C22.5065 27.8759 21.8675 27.0998 21.69 26.1411C21.548 25.1824 21.903 24.1324 22.542 23.6302C22.6841 23.5389 22.8379 23.4628 23.0036 23.4019C23.2166 23.3106 23.2876 23.3106 23.5006 23.3106H27.2994C27.3704 23.3106 27.4533 23.2954 27.548 23.265C27.7136 23.2346 27.8675 23.1737 28.0095 23.0824C28.8261 22.6715 29.2521 21.4846 29.1101 20.4346C28.9681 19.5672 28.4355 18.8824 27.7965 18.6541C27.7255 18.6237 27.6545 18.6085 27.5835 18.6085C27.5125 18.5628 27.3704 18.5628 27.2994 18.5628H1.84382C1.74915 18.5628 1.66631 18.5476 1.5953 18.5172C0.849739 18.3802 0.175182 17.6498 0.0331705 16.6454C-0.108841 15.7324 0.210685 14.6824 0.885241 14.1802C1.02725 14.0585 1.1811 13.9672 1.34678 13.9063C1.5598 13.815 1.5953 13.815 1.84382 13.815H22.9681C23.0628 13.815 23.1456 13.815 23.2166 13.815C23.3823 13.7846 23.548 13.7237 23.7136 13.6324C24.5302 13.1759 24.9562 11.9889 24.7787 10.9389C24.6367 10.1172 24.1042 9.38673 23.4651 9.15847C23.4178 9.12803 23.3586 9.11281 23.2876 9.11281C23.2166 9.11281 23.0746 9.06716 22.9681 9.06716H14.4119C14.3409 9.06716 14.258 9.06716 14.1633 9.06716C13.4178 8.93021 12.7787 8.15412 12.6012 7.19542C12.4592 6.23673 12.8142 5.18673 13.4533 4.68455C13.5953 4.56281 13.7491 4.47151 13.9148 4.41064C14.1278 4.31934 14.1989 4.36499 14.4119 4.31934H45.406C45.4296 4.31934 45.4533 4.31934 45.477 4.31934C45.5243 4.31934 45.5835 4.31934 45.6545 4.31934C45.832 4.36499 45.903 4.36499 46.0805 4.45629C46.1515 4.48673 46.2107 4.53238 46.258 4.59325L58.9326 13.9519C58.9326 13.9824 58.9444 13.9976 58.9681 13.9976C58.9917 14.028 59.0036 14.0432 59.0036 14.0432C59.1101 14.1346 59.1456 14.1802 59.2521 14.3172C59.4651 14.5911 59.5716 14.9563 59.6426 15.3215C59.6426 15.3519 59.6426 15.3976 59.6426 15.4585C59.6426 15.4889 59.6426 15.5193 59.6426 15.5498C59.6426 15.5498 59.6426 15.565 59.6426 15.5954ZM45.0509 8.65629L43.3468 9.93455C43.1693 10.0715 43.1693 10.4367 43.3468 10.5737L52.258 17.1476C52.542 17.3759 52.8971 17.3759 53.2166 17.1476L54.9562 15.8693C55.1338 15.7324 55.1338 15.4128 54.9562 15.2759L46.045 8.65629C45.7255 8.42803 45.3704 8.42803 45.0509 8.65629ZM46.045 22.4889L47.7846 21.165C47.9622 21.0737 47.9622 20.7541 47.7846 20.6172L38.8734 13.9976C38.5539 13.7693 38.1988 13.7693 37.8793 13.9976L36.1752 15.2759C35.9977 15.4128 35.9977 15.7324 36.1752 15.8693L45.0509 22.4889C45.3704 22.7172 45.7255 22.7172 46.045 22.4889ZM56.7669 20.2519C56.7669 19.6128 56.2344 19.2019 55.7728 19.5215L54.1752 20.7085V28.0585C54.1752 28.378 54.0332 28.6519 53.8202 28.8346L50.2699 31.4367C49.9503 31.665 49.5953 31.3911 49.5953 30.9346C49.5953 29.3824 49.5953 26.278 49.5953 24.0867L47.3231 25.7759C47.1101 25.9585 47.0036 26.2324 47.0036 26.5519V39.1063C47.0036 39.7454 47.5361 40.1563 47.9622 39.8367L56.4474 33.5367C56.6604 33.3998 56.7669 33.1259 56.7669 32.8063V20.2519Z" fill="white"/>
</svg>
